/* XPM */
static char *_74ca66bc0754b318b7e04897d8426b7EBfab55tlXrAzfFC[] = {
/* columns rows colors chars-per-pixel */
"64 64 22 1 ",
"  c None",
". c #C8800D",
"X c #CA800C",
"o c #C8800E",
"O c #C9800E",
"+ c #C9810E",
"@ c #CB820E",
"# c #CE840E",
"$ c #D0860E",
"% c #D3870F",
"& c #D6890F",
"* c #D88B0F",
"= c #DB8C0F",
"- c #DE8E10",
"; c #E09010",
": c #E39110",
"> c #E59310",
", c #E89511",
"< c #EB9611",
"1 c #ED9811",
"2 c #F09A11",
"3 c #F39C12",
/* pixels */
"                                                                ",
"                                                                ",
"                                                                ",
"                                                                ",
"                                                                ",
"                                                                ",
"                                                                ",
"                                                                ",
"                                                                ",
"                                                                ",
"                                                                ",
"                                                                ",
"                                                                ",
"                                                                ",
"                                                                ",
"                                                                ",
"                                                                ",
"                                                                ",
"                             OOOOOO                             ",
"                          OOOOOOOOOOOO                          ",
"                        OOO$->,,,,>-$OOO                        ",
"                       OO$,3333333333,$OO                       ",
"                      OO-33333333333333-OO                      ",
"                     OO-3333333333333333-OO                     ",
"                    OO*33333,=$$$$*,33333*OO                    ",
"                    O#23332*OOOOOOOO$,3332#O                    ",
"                   OO>3333$OOOOOOOOOO$3333>OO                   ",
"                   O$3333=OOOO$>>$OOOO=3333$O                   ",
"                  OO;333,OOOOO,33,OOOOO,333;OO                  ",
"                  OO,333*OOOOO3333OOOOO*333,OO                  ",
"                  OO3333#OOOOO3333OOOOO#3333OO                  ",
"                  OO3333OOOOOO3333OOOOOO3333OO                  ",
"                  OO3333OOOOOO3333OOOOOO3333OO                  ",
"                  OO3333OOOOOO3333OOOOOO3333OO                  ",
"                  OO,333&OOOOO3333OOOOO&333,OO                  ",
"                  OO;333>OOOOO1331OOOOO>333;OO                  ",
"                   O$3333$OOOO=22=OOOO$3333$O                   ",
"                   OO,3331OOOOOOOOOOOO1333,OO                   ",
"                    O$33331&OOOOOOOO&13333$O                    ",
"                    OO-33333;$OOOO$;33333-OO                    ",
"                     OO;3333333333333333;OO                     ",
"                     OOO*33333333333333*OOO                     ",
"                       OO&,3333333333,&OO                       ",
"                        OOO&>233332>&OOO                        ",
"                         OOOOOOOOOOOOOO                         ",
"                            OOOOOOOO                            ",
"                                                                ",
"                                                                ",
"                                                                ",
"                                                                ",
"                                                                ",
"                                                                ",
"                                                                ",
"                                                                ",
"                                                                ",
"                                                                ",
"                                                                ",
"                                                                ",
"                                                                ",
"                                                                ",
"                                                                ",
"                                                                ",
"                                                                ",
"                                                                "
};
