/* XPM */
static char *_4c5a9d3f6454f37cb0a5ebd5e1b374bLwRs43g31G758QRB[] = {
/* columns rows colors chars-per-pixel */
"64 64 29 1 ",
"  c None",
". c #6F8587",
"X c #758C8E",
"o c #768D8F",
"O c #789092",
"+ c #799193",
"@ c #7D9698",
"# c #819A9C",
"$ c #849EA0",
"% c #86A0A2",
"& c #89A4A6",
"* c #8AA5A7",
"= c #8BA6A8",
"- c #8CA8AA",
"; c #8DA9AB",
": c #8EAAAC",
"> c #90ACAE",
", c #91AEB0",
"< c #92AFB1",
"1 c #93B0B2",
"2 c #95B2B4",
"3 c #96B3B5",
"4 c #97B5B7",
"5 c #98B6B8",
"6 c #9AB8BA",
"7 c #9BBBBD",
"8 c #9CBBBC",
"9 c #9CBABD",
"0 c #9CBBBD",
/* pixels */
"     000000000000000000000000000000000000000000000000000000     ",
"   00000000000000000000000000000000000000000000000000000000007  ",
"  004,;**************************************************;,300  ",
" 00>********************************************************;00 ",
"003**********************************************************10 ",
"00;**********************************************************;00",
"00;***@XXXXXXXXXXXXXXXXXXXXXXXXXXXXXXXXXXXXXXXXXXXXXXXXXX+****00",
"00****XXXXXXXXXXXXXXXXXXXXXXXXXXXXXXXXXXXXXXXXXXXXXXXXXXXX****00",
"00****XXXXXXXXXXXXXXXXXXXXXXXXXXXXXXXXXXXXXXXXXXXXXXXXXXXX****00",
"00****XXXXXXXXXXXXXXXXXXXXXXXXXXXXXXXXXXXXXXXXXXXXXXXXXXXX****00",
"00****XXXXXXXXXXXXXXXXXXXXXXXXXXXXXXXXXXXXXXXXXXXXXXXXXXXX****00",
"00****XXXXXXXXXXXXXXXXXXXXXXXXXXXXXXXXXXXXXXXXXXXXXXXXXXXX****00",
"00****XXXXXXXXXXXXXXXXXXXXXXXXXXXXXXXXXXXXXXXXXXXXXXXXXXXX****00",
"00****XXXXXXXXXXXXXXXXXXXXXXXXXXXXXXXXXXXXXXXXXXXXXXXXXXXX****00",
"00****XXXXXXXXXXXXXXXXXXXXXXXXXXXXXXXXXXXXXXXXXXXXXXXXXXXX****00",
"00****XXXXXXXXXXXXXXXXXXXXXXXXXXXXXXXXXXXXXXXXXXXXXXXXXXXX****00",
"00****XXXXXXXXXXXXXXXXXXXXXXXXXXXXXXXXXXXXXXXXXXXXXXXXXXXX****00",
"00****XXXXXXXXXXXXXXXXXXXXXXXXXXXXXXXXXXXXXXXXXXXXXXXXXXXX****00",
"00****XXXXXXXXXXXXXXXXXXXXXXXXXXXXXXXXXXXXXXXXXXXXXXXXXXXX****00",
"00****XXXXXXXXXXXXXXXXXXXXXXXXXXXXXXXXXXXXXXXXXXXXXXXXXXXX****00",
"00****XXXXXXXXXXXXXXXXXXXXXXXXXXXXXXXXXXXXXXXXXXXXXXXXXXXX****00",
"00****XXXXXXXXXXXXXXXXXXXXXXXXXXXXXXXXXXXXXXXXXXXXXXXXXXXX****00",
"00****XXXXXXXXXXXXXXXXXXXXXXXXXXXXXXXXXXXXXXXXXXXXXXXXXXXX****00",
"00****XXXXXXXXXXXXXXXXXXXXXXXXXXXXXXXXXXXXXXXXXXXXXXXXXXXX****00",
"00****XXXXXXXXXXXXXXXXXXXXXXXXXXXXXXXXXXXXXXXXXXXXXXXXXXXX****00",
"00****XXXXXXXXXXXXXXXXXXXXXXXXXXXXXXXXXXXXXXXXXXXXXXXXXXXX****00",
"00****XXXXXXXXXXXXXXXXXXXXXXXXXXXXXXXXXXXXXXXXXXXXXXXXXXXX****00",
"00****XXXXXXXXXXXXXXXXXXXXXXXXXXXXXXXXXXXXXXXXXXXXXXXXXXXX****00",
"00****XXXXXXXXXXXXXXXXXXXXXXXXXXXXXXXXXXXXXXXXXXXXXXXXXXXX****00",
"00****XXXXXXXXXXXXXXXXXXXXXXXXXXXXXXXXXXXXXXXXXXXXXXXXXXXX****00",
"00****XXXXXXXXXXXXXXXXXXXXXXXXXXXXXXXXXXXXXXXXXXXXXXXXXXXX****00",
"00****XXXXXXXXXXXXXXXXXXXXXXXXXXXXXXXXXXXXXXXXXXXXXXXXXXXX****00",
"00****XXXXXXXXXXXXXXXXXXXXXXXXXXXXXXXXXXXXXXXXXXXXXXXXXXXX****00",
"00****XXXXXXXXXXXXXXXXXXXXXXXXXXXXXXXXXXXXXXXXXXXXXXXXXXXX****00",
"00************************************************************00",
"00************************************************************00",
"00************************************************************00",
"005,********************************************************,500",
"0000000000000000000000000000000000000000000000000000000000000000",
"00%:60000000000000000000000000000000000000000000000000000006:%00",
"00#############################++#############################00",
"00#############################++#############################00",
"00#############################++#############################00",
"00#############################++#############################00",
"00#############################++#############################00",
"00#############################++#############################00",
"00#############################++#############################00",
"00#############################++#############################00",
"00#############################++#############################00",
"**............................................................**",
"**............................................................**",
"00#############++##############################++#############00",
"00#############++##############################++#############00",
"00#############++##############################++#############00",
"00#############++##############################++#############00",
"00#############++##############################++#############00",
"00#############++##############################++#############00",
"00$############++##############################++############$00",
"00*############++##############################++############*00",
"703############++##############################++############307",
" 00=###########++##############################++###########=00 ",
"  00,$#########++##############################++#########$,00  ",
"  0000000000000**000000000000000000000000000000**0000000000000  ",
"    00000000000**000000000000000000000000000000**00000000000    "
};
