/* XPM */
static char *_72a97ecc1e24f79f7d2632b70cd7c090aMQ2ux7sEtnAYXz[] = {
/* columns rows colors chars-per-pixel */
"64 64 27 1 ",
"  c #24A65B",
". c #24A75B",
"X c #24A85C",
"o c #25A85C",
"O c #25A95D",
"+ c #25AA5D",
"@ c #25AA5E",
"# c #26AB5E",
"$ c #26AC5E",
"% c #26AC5F",
"& c #26AD5F",
"* c #27AE60",
"= c #27AF61",
"- c #27B061",
"; c #28B162",
": c #28B262",
"> c #28B363",
", c #28B463",
"< c #28B564",
"1 c #28B664",
"2 c #29B765",
"3 c #29B865",
"4 c #29B966",
"5 c #29BA66",
"6 c #29BB67",
"7 c #29BC67",
"8 c #2ABD68",
/* pixels */
";;;288888885;;;*.........................o;;;o.............o-;;;",
";;58888888885;;;.........................*;;o...............o;;;",
";5888888888885;;o.......................o;;*.................$;;",
"588888888888882;-.......................*;;$.................o;;",
"888888888888888,;$.....................$;;;o.................o;5",
"8888888888888885;;$...................o;;;;*.................$28",
"88888888888888882;;o.................o;;;;;;o...............o;58",
"88888888888888882;;;o...............o;;255,;-o..............*;58",
"88888888888888882;;;;$.............o;;588885;*.............*;;,8",
"8888888888888888;;;;;;$...........o;;58888885;*...........$;;;;5",
"5888888888888882;;;;;;;$.........o;;5888888885;*X........*;;;;;;",
";88888888888882;;;;;;;;;*.......$;;288888888885;*X......*;;;;;;;",
";288888888887,;;;;;;;;;;;;o...o*;;;8888888888882;*o...o*;*oooo$;",
"-;2888888887;;;;;;;;;;;;;;;;;;;;;;;8888888888882;;;***;;o.......",
".*;58888885;;;*o..o;;;;;;;;;;;;;;;;588888888888;;;;;;;;o........",
"..*;278885;;;$.....o;;;;;;;;;;;;;;;,88888888882;;;;;;;o.........",
"...$;;,,;;;;o.......o;;;;;;;;;;;;;;;2888888882;;;;;;*o..........",
"....*;;;;;;o.........$;;;;;;;;;;;;;;;28888882;;;;;;;o...........",
".....*;;;;$...........-;;;;;;;*ooo*;;;288882;;;;;;;o............",
"......*;;;o...........$;;;;;*......o*;;,55,;;;;;;;o.............",
".......*;;o...........o;;;;$........o*;;;;;;;;;;;o..............",
"........-;*...........o;;-o...........*;;;;;;;;;$...............",
"........o;;$.........o-;*o.............*;;;;;;;*................",
".........*;;o.......o*;*................*;;;;;;o................",
".........o;;*......o;;*..................*;;;;*.................",
".........o;;;*...o*;;*....................-;;;*.................",
".........o;;;;-**;;;*.....................o;;;*.................",
".........$;;;;;;;;;-o......................o;;;.................",
"........o;;;;;;;;;;o........................*;;$................",
"........*;;;;;;;;;*.........................o;;;o...............",
".......$;;;;;;;;;;$..........................$;;;o..............",
"......o;;;;;;;;;;;o..........................o;;;-X.............",
".....$;;;;;;;;;;;;*..........................o;;;;-.............",
"....o;;;;;;;;;;;;;;o.........................o;;;;;*............",
"...$;;;;;;;***;;;;;*.........................;;;;;;;*o..........",
"..$;;;;;;;o...oo-;;;o.......................*;;;;;;;;-o.........",
".$;;;;;;;o.......*;;-o.....................$;;;;;;;;;;-o........",
"*;;;;;;;o.........$;;*....................o;;;;,5552;;;;o.......",
";;;;;;;*...........o;;*..................o;;;;2788885;;;;*o...o;",
";;;;;;*.............o;;$................o;;;;288888885;;;;;;;;;;",
";;;;;;o..............$;;$..............o;;;;28888888885;;;;;;;;;",
";;;;;$................*;;$............$;;;;2888888888885;;;;;;;;",
";;;;-.................o;;;$..........*;;;;288888888888885;;;;;;;",
";;;;$.................o;;;;$.......o-;;;;,8888888888888885;;;;;;",
";;;;o.................$;;;;;-o...o*;;;;;;588888888888888882;;;;;",
";;;;$.................;;;;;;;;;;;;;;;;;;2888888888888888885;;;;;",
";;;;;X...............*;;;;;;;;;;;;;;;;;;2888888888888888888;;;;;",
";;;;;*X.............o;;;;;;;;;;;;;;;;;;;,888888888888888885;;;;;",
";;;;;;-o...........o;;;;;;;;;;;;;;;;;;;;;58888888888888888,;;;;;",
";;;;;;;;o.........o-;;;;;;;;;;;;;;;;;;;;;;5888888888888882;;;;,;",
"2;;;;;;;;$........*;;;;;;;;;;;;;;;;;;;;;;;;78888888888882;;;2888",
"82;;;;;;;;*o.....*;;;;;;;;$Xooo-;;;;;;;;;;;;788888888882;;;58888",
"885;;;;;;;;;$ooo-;;;;;;;*.......*;;;;;;;;;;;;7888888885;;;588888",
"8885;;;;;;;;;;;;;;;;;;;*.........$;;;;;;;;;;;;58888882;;;5888888",
"88882;;;;;;;;;;;;;;;;;$...........o;;;;;;;;;;;;588882;;;28888888",
"88885;;;;;;;;;;;;;;;;$.............o;;;;;;;;;;;;,22;;;;;58888888",
"88885;;;;;;;;;;;;;;;o...............o;;;;;;;;;;;;;;;;;;;58888888",
"88882;;;;;;;;;;;;;;$.................o;;;;;;;;;;;;;;;;;;28888888",
"8885;;;;;;;;;;;;;;*...................o;;;;;;;;;;;;;;;;;;5888888",
"885;;;;;;;;;;;;;;-.....................*;;;;;;;;;;o...o*;;588888",
"82;;;;;;;;;;;;;;;o......................-;;;;;;;;o.....o-;;28888",
"2;;;;;;;;;;;;;;;$.......................o;;;;;;-o........*;;2888",
";;;;;,5552;;;;;;.........................*;;;;-o..........*;;;,;",
";;;;,788885;;;;*.........................o;;;;o............-;;;;"
};
