/* XPM */
static char *_9dd329be79343e4ac9ac6c484ad3688Kj7UPjgoUMbM9nNN[] = {
/* columns rows colors chars-per-pixel */
"64 64 31 1 ",
"  c None",
". c #C64032",
"X c #C84032",
"o c #CC4233",
"O c #CD4334",
"+ c #D34535",
"@ c #D44536",
"# c #D64636",
"$ c #DC4838",
"% c #DF4939",
"& c #E64B3B",
"* c #E74C3C",
"= c #E84C3C",
"- c #EB4D3D",
"; c #EC4D3C",
": c #ED4D3D",
"> c #F04E3E",
", c #F14F3E",
"< c #F24F3E",
"1 c #F34F3F",
"2 c #F44F3F",
"3 c #F75040",
"4 c #F95140",
"5 c #FA5140",
"6 c #FB5241",
"7 c #FF5241",
"8 c #FF5341",
"9 c #FF5242",
"0 c #FF5342",
"q c #758C8E",
"w c #819A9C",
/* pixels */
"     000000000000000000000000000000000000000000000000000000     ",
"   00000000000000000000000000000000000000000000000000000000000  ",
"  004>:=************************************************=:>300  ",
" 00>********************************************************=00 ",
"003**********************************************************20 ",
"00:**********************************************************:00",
"00=***@..................................................o***=00",
"00****X...................................................****00",
"00****....................................................****00",
"00****....................................................****00",
"00****....................................................****00",
"00****....................................................****00",
"00****....................................................****00",
"00****....................................................****00",
"00****....................................................****00",
"00****....................................................****00",
"00****....................................................****00",
"00****....................................................****00",
"00****....................................................****00",
"00****....................................................****00",
"00****....................................................****00",
"00****....................................................****00",
"00****....................................................****00",
"00****....................................................****00",
"00****....................................................****00",
"00****....................................................****00",
"00****....................................................****00",
"00****....................................................****00",
"00****....................................................****00",
"00****....................................................****00",
"00****....................................................****00",
"00****....................................................****00",
"00****....................................................****00",
"00****....................................................****00",
"00************************************************************00",
"00************************************************************00",
"00************************************************************00",
"004>=******************************************************=>400",
"0000000000000000000000000000000000000000000000000000000000000000",
"00@&40000000000000000000000000000000000000000000000000000004&@00",
"00OOOOOOOOOOOOOOOOOOOOOOOOOOOOOqqOOOOOOOOOOOOOOOOOOOOOOOOOOOOO00",
"00OOOOOOOOOOOOOOOOOOOOOOOOOOOOOqqOOOOOOOOOOOOOOOOOOOOOOOOOOOOO00",
"00OOOOOOOOOOOOOOOOOOOOOOOOOOOOOqqOOOOOOOOOOOOOOOOOOOOOOOOOOOOO00",
"00OOOOOOOOOOOOOOOOOOOOOOOOOOOOOqqOOOOOOOOOOOOOOOOOOOOOOOOOOOOO00",
"00OOOOOOOOOOOOOOOOOOOOOOOOOOOOOqqOOOOOOOOOOOOOOOOOOOOOOOOOOOOO00",
"00OOOOOOOOOOOOOOOOOOOOOOOOOOOOOqqOOOOOOOOOOOOOOOOOOOOOOOOOOOOO00",
"00OOOOOOOOOOOOOOOOOOOOOOOOOOOOOqqOOOOOOOOOOOOOOOOOOOOOOOOOOOOO00",
"00OOOOOOOOOOOOOOOOOOOOOOOOOOOOOqqOOOOOOOOOOOOOOOOOOOOOOOOOOOOO00",
"00OOOOOOOOOOOOOOOOOOOOOOOOOOOOOqqOOOOOOOOOOOOOOOOOOOOOOOOOOOOO00",
"qqwwwwwwwwwwwwwwwwwwwwwwwwwwwwwwwwwwwwwwwwwwwwwwwwwwwwwwwwwwwwqq",
"qqwwwwwwwwwwwwwwwwwwwwwwwwwwwwwwwwwwwwwwwwwwwwwwwwwwwwwwwwwwwwqq",
"00OOOOOOOOOOOOOqqOOOOOOOOOOOOOOOOOOOOOOOOOOOOOOqqOOOOOOOOOOOOO00",
"00OOOOOOOOOOOOOqqOOOOOOOOOOOOOOOOOOOOOOOOOOOOOOqqOOOOOOOOOOOOO00",
"00OOOOOOOOOOOOOqqOOOOOOOOOOOOOOOOOOOOOOOOOOOOOOqqOOOOOOOOOOOOO00",
"00OOOOOOOOOOOOOqqOOOOOOOOOOOOOOOOOOOOOOOOOOOOOOqqOOOOOOOOOOOOO00",
"00OOOOOOOOOOOOOqqOOOOOOOOOOOOOOOOOOOOOOOOOOOOOOqqOOOOOOOOOOOOO00",
"00OOOOOOOOOOOOOqqOOOOOOOOOOOOOOOOOOOOOOOOOOOOOOqqOOOOOOOOOOOOO00",
"00+OOOOOOOOOOOOqqOOOOOOOOOOOOOOOOOOOOOOOOOOOOOOqqOOOOOOOOOOOO+00",
"00$OOOOOOOOOOOOqqOOOOOOOOOOOOOOOOOOOOOOOOOOOOOOqqOOOOOOOOOOOO$00",
"00>OOOOOOOOOOOOqqOOOOOOOOOOOOOOOOOOOOOOOOOOOOOOqqOOOOOOOOOOOO>00",
" 00$OOOOOOOOOOOqqOOOOOOOOOOOOOOOOOOOOOOOOOOOOOOqqOOOOOOOOOOO$00 ",
"  00:+OOOOOOOOOqqOOOOOOOOOOOOOOOOOOOOOOOOOOOOOOqqOOOOOOOOO+:00  ",
"  0000000000000qq000000000000000000000000000000qq0000000000000  ",
"    00000000000qq000000000000000000000000000000qq00000000000    "
};
